<?xml version="1.0" encoding="UTF-8" standalone="no"?>
<!DOCTYPE svg PUBLIC "-//W3C//DTD SVG 1.1//EN" "http://www.w3.org/Graphics/SVG/1.1/DTD/svg11.dtd">
<svg width="100%" height="100%" viewBox="0 0 800 800" version="1.1" xmlns="http://www.w3.org/2000/svg" xmlns:xlink="http://www.w3.org/1999/xlink" xml:space="preserve" xmlns:serif="http://www.serif.com/" style="fill-rule:evenodd;clip-rule:evenodd;stroke-linejoin:round;stroke-miterlimit:2;">
    <rect x="0" y="-1" width="801" height="800" style="fill:white;"/>
    <g id="Artboard1" transform="matrix(0.675676,0,0,0.925926,0,0)">
        <rect x="0" y="0" width="1184" height="864" style="fill:none;"/>
        <clipPath id="_clip1">
            <rect x="0" y="0" width="1184" height="864"/>
        </clipPath>
        <g clip-path="url(#_clip1)">
            <g transform="matrix(2.747458,0,0,2.004902,-1029.501781,-299.870691)">
                <g transform="matrix(1.825069,0,0,0.548947,347.334573,141.355082)">
                    <path d="M130.042,800L71.948,800C72.514,790.707 73.819,779.934 74.276,770.434C74.769,760.222 73.588,735.49 75.089,729.234C78.577,714.712 82.332,711.425 84.698,692.107L84.877,690.625L83.118,675.515C81.02,687.874 78.624,701.906 74.955,709.836C74.26,712.092 73.465,714.821 72.746,716.913C70.243,720.835 68.474,721.9 65.713,722.763L63.464,722.651C58.787,729.933 57.201,726.587 53.584,731.69C56.808,725.82 57.412,727.271 60.237,723.753L60.083,721.819L60.468,720.87C61.86,715.363 64.684,709.15 65.338,702.36C63.965,706.875 64.682,702.091 63.826,706.213L63.702,706.106L64.219,701.283L63.555,701.744C62.772,704.716 62.184,707.47 61.153,709.34L60.93,708.313C61.198,706.211 61.416,704.696 61.573,702.443L61.412,701.888C60.107,706.217 58.757,710.951 57.327,714.777C54.989,721.74 50.94,729.31 47.739,728.779C46.399,728.557 45.071,727.831 43.776,726.666L43.826,725.851L43.966,725.822L44.058,722.686C42.035,721.307 40.92,720.824 39.069,717.719C37.654,715.56 36.407,712.343 35.425,708.322C36.082,707.88 36.851,710.136 37.579,711.613L38.639,708.062C34.147,692.924 30.002,686.239 23.894,684.292L23.814,683.175C24.108,682.946 24.726,682.408 24.942,681.822C27.336,675.351 30.693,683.005 33.116,681.523L30.257,675.695L30.382,674.816L31.96,674.838C33.29,675.609 33.51,675.12 34.611,672.792L34.851,672.274C37.149,677.198 39.115,681.242 41.448,685.663C41.544,685.628 41.64,685.592 41.733,685.556C39.146,673.567 38.246,673.523 34.556,664.569L35.022,661.778L34.494,660.098C33.025,661.013 32.208,661.295 30.724,661.671L30.606,660.353C33.679,651.948 37.513,658.367 39.748,667.169C41.316,671.936 42.911,677.004 44.618,681.167L44.876,681.276C45.311,676.518 43.206,657.432 42.27,653.153C39.752,645.307 38.72,642.117 36.625,632.752C38.145,636.717 41.075,645.318 42.397,649.809L45.096,658.45C44.908,646.968 45.057,642.814 45.479,631.594C46.226,636.024 45.773,651.673 46.714,662.174L47.014,663.885L47.358,658.73C49.4,658.885 50.858,668.365 53.219,672.801C61.924,642.449 73.914,618.036 84.429,595.671C85.952,592.43 87.467,588.51 88.886,584.753C89.157,583.276 89.689,582.059 90.114,580.872C92.165,575.232 97.508,564.713 99.913,560.03C103.175,551.503 107.506,550.353 111.453,551.206L113.603,547.567L113.98,546.619C116.067,545.832 118.301,544.999 120.391,544.582L120.886,544.352C121.859,543.05 123.139,543.308 124.218,543.238L124.706,543.4C124.639,539 124.379,536.642 124.021,532.501L124.021,528.039C126.232,521.067 132.951,538.166 134.923,543.352L135.559,544.289C135.259,538.371 132.498,517.658 131.673,507.457C130.475,492.319 131.278,484.834 134.394,473.667C134.912,470.538 136.156,459.598 136.696,455.323C138.075,444.395 139.322,436.739 141.09,426.492C138.151,421.562 138.169,418.867 138.173,408.637C138.587,402.116 139.101,399.267 140.231,394.065C141.507,391.31 141.735,391.074 143.21,389.756C153.388,372.385 155.2,398.146 159.873,346.095C151.024,338.286 138.338,324.637 130.095,318.992C129.191,332.779 128.612,339.947 125.716,350.649C123.745,351.836 121.369,352.99 119.463,354.714C113.18,360.396 106.726,362.209 100.403,366.843C94.283,371.327 88.321,378.825 82.075,381.449C77.044,383.703 71.445,381.795 66.376,382.82C65.186,387.372 64.309,391.714 62.679,393.976C60.152,392.826 60.759,378.453 60.759,371.572C60.759,364.539 60.682,356.023 61.047,349.25C61.191,342.096 61.36,337.296 61.703,330.214L61.958,329.294C62.444,323.975 62.294,316.721 62.587,310.176C62.631,305.777 62.394,297.453 62.301,292.755C62.328,285.27 62.377,279.894 62.911,272.641L63.527,258.98C63.836,251.493 64.225,246.067 65.335,239.486L69.396,226.665C70.827,220.987 71.521,218.503 73.17,213.553C83.664,201.173 84.663,200.578 95.141,213.046C96.884,210.941 97.885,209.123 99.516,206.241C101.966,199.228 105.613,191.299 108.342,185.631C111.04,180.399 113.934,175.622 116.717,170.849C123.653,156.522 128.051,152.492 135.737,145.822C138.387,141.672 142.036,133.269 144.723,128.35C149.1,120.334 153.491,113.206 157.933,105.721C167.781,89.121 178.013,77.759 188.06,63.264C189.371,59.444 189.105,59.013 190.679,58.275C191.156,59.122 191.664,59.479 191.686,61.124C191.863,74.63 188.281,103.087 187.018,114.998L181.288,170.681C180.451,178.64 179.76,186.66 179.006,194.7C174.041,247.693 167.796,299.868 162.683,352.618C164.914,351.582 168.828,349.062 170.859,353.551C172.086,356.263 171.692,366.198 173.534,367.537C175.843,369.216 180.322,376.408 180.294,385.169C178.057,391.911 175.515,383.504 172.253,384.474C172.212,393.878 171.769,394.378 170.883,403.226L170.643,408.087C169.626,410.399 169.188,409.761 167.937,408.557L167.396,410.161C167.694,418.911 166.928,423.625 167.404,432.74C168.406,451.921 168.733,484.135 176.374,488.003C178.395,483.023 179.512,482.207 181.506,488.309L181.809,489.987C185.725,485.156 190.628,480.916 194.739,476.55C194.275,473.873 194.056,472.996 193.9,469.886C197.173,469.642 200.415,467.901 203.681,467.249C204.788,467.028 205.576,469.95 206.317,472.277C206.308,466.949 205.202,454.237 206.463,451.103C208.135,458.085 208.112,464.021 210.742,460.911C211.972,462.93 212.212,466.508 212.999,471.261L213.001,465.721L213.563,464.74C215.146,467.375 216.043,481.875 218.299,491.889C219.874,505.355 222.236,524.501 224.746,536.304C225.989,544.615 227.051,553.5 228.347,561.606C229.027,566.348 229.79,571.433 230.423,576.2L228.271,585.817L227.966,587.942C225.154,603.674 222.629,590.182 218.652,596.078L218.406,599.15C216.843,597.216 215.991,595.3 214.297,594.786C211.465,593.932 208.455,593.501 205.724,590.787C197.839,608.436 195.962,615.081 189.042,636.55L189.059,638.729C192.851,648.043 201.617,653.054 204.407,661.496L206.223,670.69C206.099,682.187 205.941,693.595 206.007,705.103C207.546,710.54 208.457,713.615 210.177,718.35C210.504,719.203 212.309,723.799 212.47,724.461C215.033,729.054 219.814,737.901 221.547,745.864C222.957,747.068 223.449,747.525 224.761,749.566C226.39,754.394 228.166,758.646 228.687,765.663C228.642,766.222 228.585,766.75 228.515,767.248C228.577,767.524 228.638,767.793 228.698,768.054C228.594,768.077 228.486,768.102 228.375,768.129C226.703,777.365 220.551,774.766 219.159,765.419C219.103,761.819 219.113,761.999 219.517,758.898C218.032,753.581 215.959,752.862 213.865,751.356C212.64,746.786 208.012,729.889 206.418,729.17L206.416,745.917L206.458,756.813C205.793,763.432 204.795,769.783 203.871,776.064C203.401,774.414 202.952,772.707 202.515,770.963C200.946,764.697 198.972,756.065 199.197,747.56C200.276,742.938 202.064,739.192 202.15,735.451C200.756,727.31 201.199,718.779 199.838,715.737C195.847,706.815 190.752,701.855 186.776,692.773L186.391,691.877C186.094,691.512 184.958,689.32 184.61,688.68L183.153,686.296C181.748,683.99 179.695,681.549 178.181,679.595C177.093,678.487 176.026,677.965 174.907,677.299C174.718,677.423 173.848,677.331 173.686,677.327C172.001,673.066 170.051,677.6 168.191,680.242L166.875,680.142C166.438,680.013 151.944,687.021 151.243,687.692C147.781,690.146 147.522,690.881 145.184,699.873C144.041,694.611 143.524,690.911 141.665,688.905C141.582,693.973 141.711,697.502 140.845,701.504C139.33,702.688 138.244,697.316 137.398,693.656L136.889,693.182C135.497,692.439 125.16,684.003 123.588,682.369L122.229,682.281C121.766,684.591 121.922,695.391 121.976,698.462C122.355,719.878 120.481,736.589 121.519,757.954C123.973,775.264 126.722,786.31 130.042,800Z" style="fill:white;"/>
                </g>
                <g id="main" transform="matrix(1.199644,0,0,1.199644,-100.638054,-114.73905)">
                    <path d="M659.524,242.424L660.757,243.15C660.76,245.111 655.849,253.79 655.069,257.606C651.376,275.659 645.031,292.655 638.951,310.005L637.645,310.553C636.573,314.209 635.644,317.459 634.268,321.031L634.797,322.071C633.468,325.5 632.571,327.939 631.585,331.469L630.561,331.537C629.632,335.09 628.415,338.398 627.196,341.854L627.873,342.197C626.614,345.836 625.42,349.207 624.426,352.94C623.325,356.168 622.158,359.373 620.924,362.553C619.989,365.429 619.063,368.426 618.075,371.273L616.642,371.845C603.181,368.272 583.88,362.026 571.34,359.443C569.965,365.752 569.084,369.032 564.678,373.929C561.68,374.472 558.065,375 555.165,375.789C545.606,378.389 535.788,379.218 526.168,381.339C516.857,383.39 507.788,386.822 498.285,388.023C490.632,389.054 482.113,388.181 474.402,388.65C472.592,390.733 471.257,392.72 468.777,393.755C464.933,393.229 465.865,386.652 465.857,383.503C465.865,380.285 465.74,376.388 466.295,373.289C466.514,370.015 466.77,367.819 467.292,364.578L467.681,364.157C468.42,361.723 468.191,358.404 468.637,355.409C468.705,353.396 468.344,349.587 468.203,347.437C468.244,344.012 468.318,341.552 469.131,338.233L470.067,331.982C470.538,328.556 471.129,326.073 472.818,323.062L478.997,317.195C481.173,314.597 482.229,313.46 484.738,311.195C500.702,305.53 502.223,305.258 518.163,310.963C520.815,310 522.338,309.168 524.819,307.849C528.546,304.64 534.094,301.012 538.246,298.418C542.351,296.024 546.754,293.838 550.988,291.654C561.539,285.098 568.231,283.254 579.924,280.202C583.955,278.303 589.506,274.458 593.594,272.207C600.253,268.539 606.934,265.277 613.691,261.852C628.673,254.256 644.24,249.057 659.524,242.424Z" style="fill:rgb(197,92,28);fill-rule:nonzero;"/>
                    <path d="M570.249,347.026C569.719,348.734 569.544,349.2 568.734,350.789C574.092,351.345 577.584,351.973 582.864,353.06C591.139,355.56 611.569,360.55 620.089,362.11L620.924,362.553C619.989,365.429 619.063,368.426 618.075,371.273L616.642,371.845C603.181,368.272 583.88,362.026 571.34,359.443C569.965,365.752 569.084,369.032 564.678,373.929C561.68,374.472 558.065,375 555.165,375.789C545.606,378.389 535.788,379.218 526.168,381.339C516.857,383.39 507.788,386.822 498.285,388.023C490.632,389.054 482.113,388.181 474.402,388.65C472.592,390.733 471.257,392.72 468.777,393.755C464.933,393.229 465.865,386.652 465.857,383.503C465.865,380.285 465.74,376.388 466.295,373.289C466.514,370.015 466.77,367.819 467.292,364.578C489.707,364.806 522.751,356.677 545.405,352.665C551.059,351.664 564.915,348.699 570.249,347.026Z" style="fill:rgb(197,92,28);fill-rule:nonzero;"/>
                    <path d="M579.613,332.176C582.326,330.484 583.571,328.73 585.623,326.288C588.144,328.526 588.82,328.834 591.842,330.349C594.401,331.681 597.667,333.508 599.548,335.77C605.656,337.932 620.248,340.773 627.196,341.854L627.873,342.197C626.614,345.836 625.42,349.207 624.426,352.94L623.602,352.187C611.302,349.629 585.452,342.271 574.947,341.701L580.495,332.801L579.613,332.176Z" style="fill:rgb(197,92,28);fill-rule:nonzero;"/>
                    <path d="M623.602,352.187L624.426,352.94C623.325,356.168 622.158,359.373 620.924,362.553L620.089,362.11L623.602,352.187Z" style="fill:rgb(197,92,28);fill-rule:nonzero;"/>
                    <path d="M504.947,343.462C506.903,343.648 508.776,344.109 510.038,345.615C508.982,345.954 508.33,346.089 507.263,346.327C505.622,345.457 506.021,345.437 504.947,343.462Z" style="fill:rgb(197,92,28);fill-rule:nonzero;"/>
                    <path d="M616.642,371.845L618.075,371.273C616.755,375.682 614.888,382.852 612.665,386.547L612.06,386.868C608.378,388.84 608.38,389.397 606.878,393.348L609.847,396.931C610.427,398.614 600.604,429.483 599.102,433.539C598.641,434.906 597.179,438.851 597.151,440.057C596.285,442.803 595.375,445.535 594.421,448.252C594.892,450.33 594.368,449.544 595.823,450.823L597.249,450.722C599.416,449.782 601.063,448.725 603.274,449.164L603.479,448.645C604.841,450.132 606.18,451.64 607.496,453.167C609.547,451.731 613.756,448.203 616.213,448.983C622.18,450.262 629.866,448.72 634.739,445.059L634.251,444.559L634.988,442.929C636.073,442.482 636.455,442.336 637.45,441.728C636.39,441.091 635.982,440.991 635.334,439.947L636.414,439.168C638.102,440.342 638.415,440.635 640.314,441.319C641.878,440.44 641.34,441.059 642.008,439.423L640.987,437.568L641.746,436.781C644.821,434.502 646.521,434.129 649.554,436.921L650.015,437.689C655.972,435.478 663.431,433.538 669.686,431.54C668.98,430.315 668.647,429.914 668.41,428.491C673.389,428.379 678.321,427.583 683.289,427.284C684.973,427.183 686.173,428.52 687.3,429.585C687.286,427.147 685.603,421.33 687.522,419.896C690.065,423.091 690.031,425.807 694.032,424.384C695.903,425.308 696.268,426.945 697.465,429.12L697.468,426.585L698.324,426.136C700.732,427.342 702.096,433.977 705.529,438.559C707.925,444.721 711.518,453.482 715.337,458.883C717.227,462.686 718.844,466.752 720.815,470.461C721.849,472.631 723.01,474.958 723.973,477.139L720.7,481.54L720.235,482.512C715.958,489.711 712.116,483.537 706.065,486.235L705.692,487.641C703.313,486.756 702.018,485.879 699.44,485.644C695.132,485.253 690.552,485.056 686.397,483.814C674.402,491.89 671.547,494.931 661.019,504.755L661.044,505.752C666.814,510.014 680.15,512.307 684.394,516.17L687.157,520.377C686.968,525.638 686.728,530.858 686.828,536.124C689.169,538.612 690.555,540.019 693.172,542.186C693.67,542.576 696.416,544.679 696.66,544.982C700.56,547.084 707.834,551.132 710.47,554.776C712.615,555.327 713.363,555.536 715.36,556.47L714.932,557.406C713.05,558.907 711.137,560.348 709.478,562.092L707.382,560.74C705.123,558.307 701.969,557.978 698.783,557.289C696.919,555.198 689.879,547.466 687.454,547.137L687.451,554.8L687.514,559.786C686.503,562.815 684.985,565.721 683.578,568.595C682.864,567.84 682.177,567.062 681.516,566.261C679.117,563.404 676.125,559.444 676.468,555.552C678.109,553.437 680.83,551.723 680.96,550.011C678.84,546.286 679.513,542.382 677.443,540.99C671.371,536.908 663.62,534.638 657.572,530.482L656.986,530.072C656.534,529.905 654.805,528.902 654.276,528.609L652.059,527.518C649.922,526.463 646.798,525.346 644.495,524.452C642.84,523.945 641.217,523.706 639.515,523.401C639.227,523.458 637.903,523.416 637.657,523.414C635.094,521.464 632.127,523.539 629.297,524.748L627.295,524.702C626.63,524.643 604.58,527.85 603.514,528.157C598.247,529.28 597.852,529.616 594.296,533.731C592.557,531.323 591.77,529.63 588.942,528.712C588.816,531.031 589.012,532.646 587.695,534.477C585.389,535.019 583.737,532.561 582.45,530.886L581.676,530.669C579.558,530.329 563.833,526.469 561.441,525.721C563.126,524.225 563.05,522.873 564.265,520.363C563.291,516.553 562.378,519.783 560.455,515.543L561.332,514.393C562.728,514.131 562.993,514.214 564.085,513.299C563.608,512.121 563.105,511.272 563.359,509.967C563.491,507.562 564.785,505.503 564.783,503.146C564.784,503.941 563.634,501.87 563.319,500.621L565.592,498.196C565.119,496.506 565.511,497.292 564.116,495.906C561.842,495.839 561.178,496.96 558.811,498.019L558.11,498.325C558.9,495.972 559.282,495.606 561.041,494.002L561.518,493.572C559.715,492.812 558.204,492.961 556.229,492.924C554.678,491.318 554.368,491.653 551.963,491.069C541.595,491.105 537.917,489.082 539.31,478.365C540.482,473.928 542.056,470.634 543.826,466.425L542.979,465.702L546.25,464.037L546.824,463.603C549.999,463.243 553.397,462.862 556.577,462.671L557.33,462.566C558.811,461.97 560.757,462.088 562.399,462.056L563.141,462.13C563.039,460.117 562.644,459.038 562.1,457.143L562.1,455.101C565.463,451.911 575.685,459.735 578.685,462.108L579.653,462.537C579.197,459.829 574.996,450.351 573.741,445.683C571.919,438.756 573.14,435.331 577.881,430.221C578.669,428.789 580.561,423.783 581.382,421.827C583.48,416.826 585.378,413.323 588.068,408.634C583.596,406.378 583.623,405.145 583.629,400.464C584.26,397.48 585.041,396.176 586.761,393.796C588.702,392.535 589.048,392.427 591.292,391.824C606.777,383.875 609.533,395.663 616.642,371.845Z" style="fill:rgb(201,129,75);fill-rule:nonzero;"/>
                    <path d="M616.642,371.845L618.075,371.273C616.755,375.682 614.888,382.852 612.665,386.547L612.06,386.868C608.378,388.84 608.38,389.397 606.878,393.348L609.847,396.931C610.427,398.614 600.604,429.483 599.102,433.539C598.641,434.906 597.179,438.851 597.151,440.057C596.285,442.803 595.375,445.535 594.421,448.252C594.892,450.33 594.368,449.544 595.823,450.823L597.249,450.722C599.416,449.782 601.063,448.725 603.274,449.164L603.479,448.645C604.841,450.132 606.18,451.64 607.496,453.167C609.547,451.731 613.756,448.203 616.213,448.983L615.603,450.579L614.438,450.357C613.558,452.936 614.086,455.525 613.962,458.293C612.639,456.006 612.376,454.558 610.061,453.312L609.113,453.614C606.521,464.561 610.335,467.036 600.778,477.149C601.113,479.287 601.872,483.345 601.784,485.347C602.073,487.218 606.937,500.047 608.14,500.988L609.744,499.8C610.42,501.791 609.448,503.633 611.099,506.268C611.118,506.299 612.299,509.123 612.407,509.378L613.471,514.711L615.052,516.381C614.783,519.153 615.044,519.394 616.468,521.786C614.56,522.684 612.857,523.688 610.861,523.24C609.986,522.156 610.079,521.384 609.957,519.985C608.434,518.646 609.281,519.03 607.382,518.676C605.729,519.694 603.178,521.815 601.731,521.303C597.995,519.983 591.151,516.548 587.31,518.215L586.893,519.497C587.872,521.166 588.263,521.292 589.9,522.446C591.847,522.898 592.92,524.142 594.47,525.489C597.356,527.738 599.75,527.432 603.514,528.157C598.247,529.28 597.852,529.616 594.296,533.731C592.557,531.323 591.77,529.63 588.942,528.712C588.816,531.031 589.012,532.646 587.695,534.477C585.389,535.019 583.737,532.561 582.45,530.886L581.676,530.669C579.558,530.329 563.833,526.469 561.441,525.721C563.126,524.225 563.05,522.873 564.265,520.363C563.291,516.553 562.378,519.783 560.455,515.543L561.332,514.393C562.728,514.131 562.993,514.214 564.085,513.299C563.608,512.121 563.105,511.272 563.359,509.967C563.491,507.562 564.785,505.503 564.783,503.146C564.784,503.941 563.634,501.87 563.319,500.621L565.592,498.196C565.119,496.506 565.511,497.292 564.116,495.906C561.842,495.839 561.178,496.96 558.811,498.019L558.11,498.325C558.9,495.972 559.282,495.606 561.041,494.002L561.518,493.572C559.715,492.812 558.204,492.961 556.229,492.924C554.678,491.318 554.368,491.653 551.963,491.069C541.595,491.105 537.917,489.082 539.31,478.365C540.482,473.928 542.056,470.634 543.826,466.425L542.979,465.702L546.25,464.037L546.824,463.603C549.999,463.243 553.397,462.862 556.577,462.671L557.33,462.566C558.811,461.97 560.757,462.088 562.399,462.056L563.141,462.13C563.039,460.117 562.644,459.038 562.1,457.143L562.1,455.101C565.463,451.911 575.685,459.735 578.685,462.108L579.653,462.537C579.197,459.829 574.996,450.351 573.741,445.683C571.919,438.756 573.14,435.331 577.881,430.221C578.669,428.789 580.561,423.783 581.382,421.827C583.48,416.826 585.378,413.323 588.068,408.634C583.596,406.378 583.623,405.145 583.629,400.464C584.26,397.48 585.041,396.176 586.761,393.796C588.702,392.535 589.048,392.427 591.292,391.824C606.777,383.875 609.533,395.663 616.642,371.845Z" style="fill:rgb(201,129,75);fill-rule:nonzero;"/>
                    <path d="M616.642,371.845L618.075,371.273C616.755,375.682 614.888,382.852 612.665,386.547L612.06,386.868C608.378,388.84 608.38,389.397 606.878,393.348L609.847,396.931C610.427,398.614 600.604,429.483 599.102,433.539C598.641,434.906 597.179,438.851 597.151,440.057C596.285,442.803 595.375,445.535 594.421,448.252C590.942,459.814 584.267,480.622 579.631,491.579C578.516,490.956 578.419,490.446 577.868,489.29L578.403,486.969C574.34,480.781 587.11,472.409 576.268,466.303L574.018,464.572C574.185,463.806 574.515,462.794 574.741,462.018C576.347,461.177 576.357,461.618 578.685,462.108L579.653,462.537C579.197,459.829 574.996,450.351 573.741,445.683C571.919,438.756 573.14,435.331 577.881,430.221C578.669,428.789 580.561,423.783 581.382,421.827C583.48,416.826 585.378,413.323 588.068,408.634C583.596,406.378 583.623,405.145 583.629,400.464C584.26,397.48 585.041,396.176 586.761,393.796C588.702,392.535 589.048,392.427 591.292,391.824C606.777,383.875 609.533,395.663 616.642,371.845Z" style="fill:rgb(199,102,36);fill-rule:nonzero;"/>
                    <path d="M588.068,408.634L588.556,410.012C591.756,411.527 591.372,408.5 592.944,410.625L592.737,412.246L592.648,412.297L592.937,410.923L592.457,412.464C590.88,412.36 590.584,412.192 589.152,411.66L588.243,411.96C587.76,413.197 585.201,419.65 585.257,420.374C586.35,421.619 586.729,421.805 588.756,422.069C588.088,423.993 587.694,425.104 586.777,426.915C587.107,428.837 587.047,428.245 589.151,429.828L588.539,431.166L589.479,433.124C587.434,434.972 586.69,432.736 585.939,434.668C588.318,436.366 589.697,436.491 590.794,438.634C590.553,443.491 586.1,458.981 583.179,462.522C579.975,462.745 583.137,460.366 579.653,462.537C579.197,459.829 574.996,450.351 573.741,445.683C571.919,438.756 573.14,435.331 577.881,430.221C578.669,428.789 580.561,423.783 581.382,421.827C583.48,416.826 585.378,413.323 588.068,408.634Z" style="fill:rgb(201,129,75);fill-rule:nonzero;"/>
                    <path d="M577.881,430.221C579.174,431.093 579.483,431.186 580.204,432.605C579.412,435.978 575.612,436.4 575.231,438.935C575.011,440.399 577.266,446.65 575.181,448.092C574.875,447.096 574.559,446.103 574.232,445.114L573.741,445.683C571.919,438.756 573.14,435.331 577.881,430.221Z" style="fill:rgb(202,111,46);fill-rule:nonzero;"/>
                    <path d="M616.642,371.845L618.075,371.273C616.755,375.682 614.888,382.852 612.665,386.547L612.06,386.868C608.378,388.84 608.38,389.397 606.878,393.348C603.746,394.677 603.592,398.256 603.355,401.148C601.728,401.217 596.209,401.207 595.158,401.435C592.793,401.95 591.212,406.081 587.653,404.609C586.448,401.74 586.926,401.841 583.629,400.464C584.26,397.48 585.041,396.176 586.761,393.796C588.702,392.535 589.048,392.427 591.292,391.824C606.777,383.875 609.533,395.663 616.642,371.845Z" style="fill:rgb(201,129,75);fill-rule:nonzero;"/>
                    <path d="M591.292,391.824C592.937,391.591 593.465,391.459 595.098,391.613L596.348,392.651C595.42,394.9 592.203,397.032 589.812,396.691L590.043,394.53C587.794,394.719 588.481,396.722 586.687,395.837L586.761,393.796C588.702,392.535 589.048,392.427 591.292,391.824Z" style="fill:rgb(231,208,178);fill-rule:nonzero;"/>
                    <path d="M592.157,397.104C593.211,397.157 592.813,397.084 593.789,397.583C593.083,399.153 592.485,400.229 591.636,401.73C590.18,401.657 590.737,401.945 589.816,401.068C590.292,399.472 591.183,398.459 592.157,397.104Z" style="fill:rgb(231,208,178);fill-rule:nonzero;"/>
                    <path d="M595.013,438.173L597.151,440.057C596.285,442.803 595.375,445.535 594.421,448.252C590.942,459.814 584.267,480.622 579.631,491.579C578.516,490.956 578.419,490.446 577.868,489.29L578.403,486.969C584.28,470.228 589.463,455.065 595.013,438.173Z" style="fill:rgb(229,208,187);fill-rule:nonzero;"/>
                    <path d="M609.847,396.931C610.427,398.614 600.604,429.483 599.102,433.539C598.641,434.906 597.179,438.851 597.151,440.057L595.013,438.173C596.009,433.711 607.459,399.14 609.847,396.931Z" style="fill:rgb(229,208,187);fill-rule:nonzero;"/>
                    <path d="M591.894,420.495C591.883,421.619 591.88,422.743 591.885,423.867C592.717,423.533 593.591,423.199 594.41,422.844C596.32,425.62 594.832,428.806 592.462,430.878C590.592,430.931 591.046,430.825 589.151,429.828C587.047,428.245 587.107,428.837 586.777,426.915C587.694,425.104 588.088,423.993 588.756,422.069L591.894,420.495Z" style="fill:rgb(231,208,178);fill-rule:nonzero;"/>
                    <path d="M591.894,420.495C593.651,419.81 593.363,419.558 594.029,417.675C595.664,417.283 595.579,417.315 597.221,417.772L597.815,418.604C596.144,421.391 595.273,418.805 594.092,422.091L594.41,422.844C593.591,423.199 592.717,423.533 591.885,423.867C591.88,422.743 591.883,421.619 591.894,420.495Z" style="fill:rgb(202,111,46);fill-rule:nonzero;"/>
                    <path d="M601.116,407.8L601.555,408.357C601.066,410.839 599.205,411.712 596.969,412.37L596.207,411.134C596.964,409.731 599.574,408.63 601.116,407.8Z" style="fill:rgb(223,184,148);fill-rule:nonzero;"/>
                    <path d="M546.824,463.603C548.865,463.661 550.243,463.591 552.224,464.156C552.267,465.396 552.066,465.156 550.919,466.411C550.647,469.072 550.333,468.368 551.404,470.395C557.66,475.231 561.185,467.737 567.836,476.769L569.169,475.702C570.811,477.711 567.291,488.813 566.646,491.84C561.904,491.508 556.676,491.019 551.963,491.069C541.595,491.105 537.917,489.082 539.31,478.365C540.482,473.928 542.056,470.634 543.826,466.425L542.979,465.702L546.25,464.037L546.824,463.603Z" style="fill:rgb(215,163,117);fill-rule:nonzero;"/>
                    <path d="M546.824,463.603C548.865,463.661 550.243,463.591 552.224,464.156C552.267,465.396 552.066,465.156 550.919,466.411C542.571,479.472 557.551,477.429 565.307,478.581C566.545,478.765 566.962,480.645 567.428,481.748C564.395,482.664 544.183,481.453 540.361,481.05C541.878,473.775 543.257,470.697 546.25,464.037L546.824,463.603Z" style="fill:rgb(197,92,28);fill-rule:nonzero;"/>
                    <path d="M571.159,521.213C572.74,523.805 576.171,527.843 579.528,527.32C578.528,525.179 574.734,524.283 573.149,521.58C574.628,520.667 580.03,522.577 582.961,522.294C584.861,521.531 587.545,522.25 589.9,522.446C591.847,522.898 592.92,524.142 594.47,525.489C597.356,527.738 599.75,527.432 603.514,528.157C598.247,529.28 597.852,529.616 594.296,533.731C592.557,531.323 591.77,529.63 588.942,528.712C588.816,531.031 589.012,532.646 587.695,534.477C585.389,535.019 583.737,532.561 582.45,530.886L581.676,530.669C579.558,530.329 563.833,526.469 561.441,525.721C563.126,524.225 563.05,522.873 564.265,520.363L564.926,520.891C565.717,521.529 565.937,521.76 566.608,522.56L567.649,522.654C569.009,521.204 568.827,521.008 571.159,521.213Z" style="fill:rgb(197,92,28);fill-rule:nonzero;"/>
                    <path d="M582.961,522.294C584.861,521.531 587.545,522.25 589.9,522.446C591.847,522.898 592.92,524.142 594.47,525.489C597.356,527.738 599.75,527.432 603.514,528.157C598.247,529.28 597.852,529.616 594.296,533.731C592.557,531.323 591.77,529.63 588.942,528.712C588.816,531.031 589.012,532.646 587.695,534.477C585.389,535.019 583.737,532.561 582.45,530.886L581.676,530.669C582.357,530.351 582.129,530.446 582.65,529.795L581.594,529.803C583.675,528.095 584.871,526.849 585.338,524.033C584.118,522.472 584.864,523.055 582.961,522.294Z" style="fill:rgb(199,102,36);fill-rule:nonzero;"/>
                    <path d="M582.961,522.294C584.861,521.531 587.545,522.25 589.9,522.446C591.847,522.898 592.92,524.142 594.47,525.489C592.113,525.416 591.307,524.717 589.327,523.58C587.401,524.131 587.178,526.483 587.171,528.263C588.234,528.772 587.801,528.702 588.942,528.712C588.816,531.031 589.012,532.646 587.695,534.477C585.389,535.019 583.737,532.561 582.45,530.886L581.676,530.669C582.357,530.351 582.129,530.446 582.65,529.795L581.594,529.803C583.675,528.095 584.871,526.849 585.338,524.033C584.118,522.472 584.864,523.055 582.961,522.294Z" style="fill:rgb(202,111,46);fill-rule:nonzero;"/>
                    <path d="M601.784,485.347C602.073,487.218 606.937,500.047 608.14,500.988L609.744,499.8C610.42,501.791 609.448,503.633 611.099,506.268C611.118,506.299 612.299,509.123 612.407,509.378L613.471,514.711C607.842,511.826 610.129,509.191 609.419,503.995C608.27,502.809 606.564,502.649 604.901,502.259C601.974,499.832 599.151,488.808 601.784,485.347Z" style="fill:rgb(231,208,178);fill-rule:nonzero;"/>
                    <path d="M567.396,460.636C568.735,461.741 569.853,462.609 571.264,463.619L571.219,464.322C570.799,464.466 569.949,464.796 569.552,464.849C569.775,464.938 570.242,465.375 570.457,465.555C569.866,467.665 569.49,469.388 568.489,471.347C564.508,471.289 561.195,463.744 557.33,462.566C558.811,461.97 560.757,462.088 562.399,462.056L563.141,462.13C565.052,462.863 565.793,461.72 567.396,460.636Z" style="fill:rgb(223,184,148);fill-rule:nonzero;"/>
                    <path d="M567.396,460.636C568.735,461.741 569.853,462.609 571.264,463.619L571.219,464.322C570.799,464.466 569.949,464.796 569.552,464.849C567.518,464.536 562.873,464.046 561.379,463.069L562.399,462.056L563.141,462.13C565.052,462.863 565.793,461.72 567.396,460.636Z" style="fill:rgb(199,102,36);fill-rule:nonzero;"/>
                    <path d="M563.359,509.967C565.477,508.428 566.537,504.411 568.339,501.423C567.334,509.003 570.169,512.593 568.096,517.581C565.247,515.605 564.102,514.634 560.455,515.543L561.332,514.393C562.728,514.131 562.993,514.214 564.085,513.299C563.608,512.121 563.105,511.272 563.359,509.967Z" style="fill:rgb(199,102,36);fill-rule:nonzero;"/>
                    <path d="M546.824,463.603C549.999,463.243 553.397,462.862 556.577,462.671C557.63,464.269 557.922,464.704 559.236,466.074C558.478,467.99 558.315,468.299 558.06,470.31C553.971,470.648 553.146,469.474 550.919,466.411C552.066,465.156 552.267,465.396 552.224,464.156C550.243,463.591 548.865,463.661 546.824,463.603Z" style="fill:rgb(223,184,148);fill-rule:nonzero;"/>
                    <path d="M560.455,515.543C564.102,514.634 565.247,515.605 568.096,517.581L569.157,518.265C570.069,517.381 571.311,515.918 572.442,515.704C572.199,516.903 571.102,520.627 571.159,521.213C568.827,521.008 569.009,521.204 567.649,522.654L566.608,522.56C565.937,521.76 565.717,521.529 564.926,520.891L564.265,520.363C563.291,516.553 562.378,519.783 560.455,515.543Z" style="fill:rgb(202,111,46);fill-rule:nonzero;"/>
                    <path d="M576.268,466.303L576.983,468.539L578.706,469.259L578.893,469.927C576.542,472.32 573.843,473.263 571.087,470.801C570.468,468.45 571.181,467.039 572.333,464.9L574.018,464.572L576.268,466.303Z" style="fill:rgb(211,157,111);fill-rule:nonzero;"/>
                    <path d="M597.249,450.722C599.416,449.782 601.063,448.725 603.274,449.164C604.183,451.53 604.588,451.371 603.941,453.437C602.302,454.953 602.707,455.08 600.938,455.267C599.852,453.735 599.679,453.42 598.917,451.697L597.249,450.722Z" style="fill:rgb(231,208,178);fill-rule:nonzero;"/>
                    <path d="M562.1,457.143L564.032,455.665L565.29,455.945C566.383,457.761 566.668,458.669 567.396,460.636C565.793,461.72 565.052,462.863 563.141,462.13C563.039,460.117 562.644,459.038 562.1,457.143Z" style="fill:rgb(199,102,36);fill-rule:nonzero;"/>
                    <path d="M577.868,489.29C578.419,490.446 578.516,490.956 579.631,491.579C578.841,494.127 578.098,496.689 577.403,499.263L574.741,497.39L577.868,489.29Z" style="fill:rgb(231,208,178);fill-rule:nonzero;"/>
                    <path d="M577.403,499.263C577.304,499.622 577.199,499.978 577.087,500.333C576.357,502.63 575.964,503.302 573.916,504.347L573.121,503.8C572.7,501.738 573.923,499.491 574.741,497.39L577.403,499.263Z" style="fill:rgb(231,208,178);fill-rule:nonzero;"/>
                    <path d="M559.236,466.074C560.807,467.466 562.7,468.655 563.292,470.379C561.597,470.979 559.906,470.544 558.06,470.31C558.315,468.299 558.478,467.99 559.236,466.074Z" style="fill:rgb(231,208,178);fill-rule:nonzero;"/>
                    <path d="M593.785,503.777L593.759,506.952C591.985,506.317 590.08,507.609 587.461,506.55C587.449,498.835 587.351,496.305 592.332,490.154L593.212,490.371C594.543,494.818 594.905,490.746 595.775,494.942L596.45,496.743C597.594,497.077 598.193,497.27 599.325,497.726L599.895,499.472L600.45,503.728C599.807,505.744 599.638,507.14 598.015,508.4C596.119,507.656 595.408,505.804 593.785,503.777Z" style="fill:rgb(197,92,28);fill-rule:nonzero;"/>
                    <path d="M593.785,503.777C594.44,499.896 593.083,497.526 595.775,494.942L596.45,496.743C597.594,497.077 598.193,497.27 599.325,497.726L599.895,499.472L600.45,503.728C599.807,505.744 599.638,507.14 598.015,508.4C596.119,507.656 595.408,505.804 593.785,503.777Z" style="fill:rgb(199,102,36);fill-rule:nonzero;"/>
                    <path d="M581.297,518.353L580.456,518.442C579.27,517.67 579.121,516.799 578.6,515.459C578.981,512.368 579.736,510.767 582.209,508.816C584.017,509.033 583.926,509.001 585.48,509.949L586.239,509.229C586.865,510.957 586.103,518.676 584.869,519.991C582.176,519.972 583.657,519.005 581.297,518.353Z" style="fill:rgb(199,102,36);fill-rule:nonzero;"/>
                    <path d="M585.48,509.949L586.239,509.229C586.865,510.957 586.103,518.676 584.869,519.991C582.176,519.972 583.657,519.005 581.297,518.353C583.17,515.191 584.021,513.345 585.48,509.949Z" style="fill:rgb(231,208,178);fill-rule:nonzero;"/>
                    <path d="M601.747,504.781L603.193,505.307C604.205,509.423 606.034,511.528 604.329,514.549C602.373,511.811 601.214,509.754 600.726,506.358L601.747,504.781Z" style="fill:rgb(199,102,36);fill-rule:nonzero;"/>
                    <path d="M572.362,477.09L573.926,477.668C575.33,479.385 574.958,479.783 575.223,482.261C572.088,481.231 572.67,479.984 572.362,477.09Z" style="fill:rgb(197,92,28);fill-rule:nonzero;"/>
                    <path d="M599.895,499.472L600.472,498.938C601.727,500.452 601.928,502.876 601.747,504.781L600.45,503.728L599.895,499.472Z" style="fill:rgb(215,163,117);fill-rule:nonzero;"/>
                    <path d="M623.898,462.174L623.984,460.892C622.009,460.47 621.25,460.49 619.745,459.262C619.518,456.549 621.303,454.306 623.988,453.791C629.549,452.724 635.076,455.999 639.718,458.587L640.699,458.973C640.042,459.741 639.394,460.517 638.753,461.3L637.727,461.527C638.239,463.038 640.778,464.669 642.173,465.755C643.214,467.637 642.493,466.935 644.434,467.914L645.022,468.293C649.233,470.976 654.178,471.742 656.529,475.343C655.498,475.88 655.83,475.685 654.517,475.698C654.328,477.875 658.033,484.301 659.305,486.481L659.917,486.432L661.155,484.588C662.105,484.45 661.828,484.299 662.436,484.64C662.586,491.115 662.502,495.364 661.225,501.902C660.98,503.16 660.824,503.48 661.019,504.755L661.044,505.752C666.814,510.014 680.15,512.307 684.394,516.17L687.157,520.377C686.968,525.638 686.728,530.858 686.828,536.124C689.169,538.612 690.555,540.019 693.172,542.186C693.67,542.576 696.416,544.679 696.66,544.982C700.56,547.084 707.834,551.132 710.47,554.776C712.615,555.327 713.363,555.536 715.36,556.47L714.932,557.406C713.05,558.907 711.137,560.348 709.478,562.092L707.382,560.74C705.123,558.307 701.969,557.978 698.783,557.289C696.919,555.198 689.879,547.466 687.454,547.137L687.451,554.8L687.514,559.786C686.503,562.815 684.985,565.721 683.578,568.595C682.864,567.84 682.177,567.062 681.516,566.261C679.117,563.404 676.125,559.444 676.468,555.552C678.109,553.437 680.83,551.723 680.96,550.011C678.84,546.286 679.513,542.382 677.443,540.99C671.371,536.908 663.62,534.638 657.572,530.482L656.986,530.072C656.534,529.905 654.805,528.902 654.276,528.609L652.059,527.518L651.599,525.122L652.352,524.361C656.357,523.695 663.772,526.984 667.389,528.777C669.769,529.957 670.395,531.283 673.537,532.342L674.098,531.764C670.995,522.735 659.916,519.848 659.398,514.423C660.081,514.009 660.752,513.715 661.509,513.462C655.873,505.963 650.189,513.366 649.172,502.135C651.22,500.897 651.646,503.038 654.669,502.433L654.905,501.29C654.212,498.874 652.862,497.522 651.273,495.608C651.044,489.802 653.441,488.669 649.753,483.861L648.768,483.755C645.906,481.865 643.643,478.532 640.361,476.029C633.704,470.952 626.347,472.473 622.462,464.834C623.159,463.72 622.278,463.493 623.898,462.174Z" style="fill:rgb(188,79,18);fill-rule:nonzero;"/>
                    <path d="M623.898,462.174C629.607,463.439 631.152,465.065 633.873,470.061C641.258,473.239 646.134,474.825 649.329,482.776C649.474,483.136 649.615,483.498 649.753,483.861L648.768,483.755C645.906,481.865 643.643,478.532 640.361,476.029C633.704,470.952 626.347,472.473 622.462,464.834C623.159,463.72 622.278,463.493 623.898,462.174Z" style="fill:rgb(215,163,117);fill-rule:nonzero;"/>
                    <path d="M684.394,516.17L687.157,520.377C686.968,525.638 686.728,530.858 686.828,536.124C689.169,538.612 690.555,540.019 693.172,542.186C685.233,539.859 687.898,544.315 680.143,536.365C683.084,535.437 685.632,530.802 686.405,527.961C685.743,525.439 686.329,526.346 683.962,524.642C684.834,519.235 681.998,520.042 682.065,517.208L684.394,516.17Z" style="fill:rgb(202,111,46);fill-rule:nonzero;"/>
                    <path d="M683.578,568.595C682.864,567.84 682.177,567.062 681.516,566.261C679.117,563.404 676.125,559.444 676.468,555.552L678.159,556.969C680.895,558.52 681.417,558.834 683.685,561.028C684.958,560.603 686.234,560.19 687.514,559.786C686.503,562.815 684.985,565.721 683.578,568.595Z" style="fill:rgb(202,111,46);fill-rule:nonzero;"/>
                    <path d="M678.159,556.969C680.895,558.52 681.417,558.834 683.685,561.028C683.428,561.995 683.117,562.918 682.809,563.868L681.917,564.206C679.719,562.499 678.84,559.559 678.159,556.969Z" style="fill:rgb(231,208,178);fill-rule:nonzero;"/>
                    <path d="M683.962,524.642C686.329,526.346 685.743,525.439 686.405,527.961C685.632,530.802 683.084,535.437 680.143,536.365L679.091,534.847C679.66,534.123 679.849,533.885 680.296,533.085C678.081,530.839 675.908,529.192 674.749,526.299C676.296,527.618 677.923,529.577 679.515,529.56L679.586,528.3L680.12,527.854L681.213,528.759L680.877,530.066L681.4,530.35C681.809,529.49 681.714,529.723 681.902,528.798L681.299,528.632L681.951,528.122L682.193,525.455L683.962,524.642Z" style="fill:rgb(197,92,28);fill-rule:nonzero;"/>
                    <path d="M696.66,544.982C700.56,547.084 707.834,551.132 710.47,554.776C707.947,554.058 706.735,554.614 704.795,554.143C702.82,552.033 697.712,547.173 696.66,544.982Z" style="fill:rgb(202,111,46);fill-rule:nonzero;"/>
                    <path d="M675.396,521.718C676.327,521.221 677.046,520.845 678.015,520.404C680.277,521.428 679.781,522.833 682.193,525.455L681.951,528.122L681.299,528.632L681.902,528.798C681.714,529.723 681.809,529.49 681.4,530.35L680.877,530.066L681.213,528.759L680.12,527.854L679.586,528.3C678.184,526.259 676.731,523.841 675.396,521.718Z" style="fill:rgb(199,102,36);fill-rule:nonzero;"/>
                    <path d="M654.276,528.609C658.48,528.109 670.437,529.764 672.357,533.282L672.308,533.859C670.679,533.915 658.789,528.818 656.986,530.072C656.534,529.905 654.805,528.902 654.276,528.609Z" style="fill:rgb(199,102,36);fill-rule:nonzero;"/>
                    <path d="M674.749,526.299C674.116,525.171 672.895,524.798 671.966,522.434C673.367,521.416 673.268,521.769 675.396,521.718C676.731,523.841 678.184,526.259 679.586,528.3L679.515,529.56C677.923,529.577 676.296,527.618 674.749,526.299Z" style="fill:rgb(231,208,178);fill-rule:nonzero;"/>
                    <path d="M687.451,554.8C684.965,552.982 684.782,552.587 683.433,549.907C683.49,548.192 683.184,548.919 684.433,547.679L686.464,547.967L687.454,547.137L687.451,554.8Z" style="fill:rgb(201,129,75);fill-rule:nonzero;"/>
                    <path d="M620.31,513.815C622.312,513.685 621.743,513.419 623.013,514.416L622.803,515.746C621.608,516.88 621.557,517.355 620.264,517.498L620.485,515.748L619.311,515.835L618.74,516.78C620.049,520.048 624.297,521.649 626.998,519.183C627.281,517.973 627.451,517.088 627.077,515.897C623.557,504.703 619.293,503.95 609.481,498.959C608.056,498.234 607.843,497.824 607.555,496.632C608.826,495.197 608.414,494.776 609.458,493.187C610.576,492.99 616.2,492.029 617.12,492.123C620.875,492.509 632.566,508.85 635.809,509.12L636.845,507.262C639.352,506.23 642.039,504.106 644.05,503.842C646.35,505.246 647.347,508.613 648.057,511.096C650.21,511.431 651.683,511.001 652.047,513.522L650.937,514.528C651.876,517.561 655.387,516.209 657.607,519.02L657.681,520.193C656.299,521.335 654.825,520.676 653.048,520.289C652.103,522.154 651.31,523.559 650.687,525.572C648.972,525.036 648.493,524.837 646.919,523.971L644.495,524.452C642.84,523.945 641.217,523.706 639.515,523.401C639.227,523.458 637.903,523.416 637.657,523.414C635.094,521.464 632.127,523.539 629.297,524.748L627.295,524.702C626.63,524.643 604.58,527.85 603.514,528.157C599.75,527.432 597.356,527.738 594.47,525.489C592.92,524.142 591.847,522.898 589.9,522.446C588.263,521.292 587.872,521.166 586.893,519.497L587.31,518.215C591.151,516.548 597.995,519.983 601.731,521.303C603.178,521.815 605.729,519.694 607.382,518.676C609.281,519.03 608.434,518.646 609.957,519.985C610.079,521.384 609.986,522.156 610.861,523.24C612.857,523.688 614.56,522.684 616.468,521.786C616.617,516.934 616.241,516.63 620.31,513.815Z" style="fill:rgb(197,92,28);fill-rule:nonzero;"/>
                    <path d="M646.199,516.837L647.303,516.968C648.563,518.091 648.631,518.408 649.43,519.944L648.716,521.114C646.701,520.98 646.245,521.058 644.445,520.263L644.315,519.257L646.199,516.837Z" style="fill:rgb(202,111,46);fill-rule:nonzero;"/>
                    <path d="M674.194,442.577C677.453,442.38 680.714,442.232 683.976,442.132L684.784,443.064C684.797,444.59 683.525,446.012 682.482,447.072C683.469,446.803 684.045,446.451 685.064,446.178C686.316,448.24 684.097,453.259 686.069,456.409C688.146,459.728 691.643,458.597 693.868,462.082L692.438,464.677L692.89,465.533L694.258,465.534C696.544,465.858 696.076,465.475 697.712,466.712L698.733,469.308L696.853,471.925C687.1,464.802 682.181,459.414 671.34,468.937L669.635,470.865C668.128,473.066 666.322,475.878 664.577,477.81L664.146,479.49C663.773,479.707 662.655,480.317 662.402,480.559C661.924,482.785 661.951,483.176 659.708,483.733C658.206,482.76 656.238,478.268 657.429,476.546C659.001,476.758 659.868,477.057 661.395,477.521L661.646,477.111L659.277,475.17C658.391,471.76 665.474,468.201 666.981,464.79C667.987,462.512 662.043,454.303 661.911,453.274C661.294,448.462 669.587,450.884 673.872,443.165L674.194,442.577Z" style="fill:rgb(197,92,28);fill-rule:nonzero;"/>
                    <path d="M694.258,465.534C696.544,465.858 696.076,465.475 697.712,466.712L698.733,469.308L695.131,468.361C693.867,466.947 694.15,467.692 694.258,465.534Z" style="fill:rgb(188,79,18);fill-rule:nonzero;"/>
                    <path d="M676.323,456.772C676.195,459.186 674.64,459.971 672.888,461.438L672.773,460.589C673.397,458.759 674.75,458.019 676.323,456.772Z" style="fill:rgb(202,111,46);fill-rule:nonzero;"/>
                    <path d="M650.015,437.689C655.972,435.478 663.431,433.538 669.686,431.54C668.98,430.315 668.647,429.914 668.41,428.491C673.389,428.379 678.321,427.583 683.289,427.284C684.973,427.183 686.173,428.52 687.3,429.585C687.286,427.147 685.603,421.33 687.522,419.896C690.065,423.091 690.031,425.807 694.032,424.384C695.903,425.308 696.268,426.945 697.465,429.12L697.468,426.585L698.324,426.136C700.732,427.342 702.096,433.977 705.529,438.559C705.742,441.312 706.349,443.005 703.964,444.813L702.473,444.352C698.948,440.879 698.208,438.953 697.512,434.028C695.935,436.269 696.507,437.636 694.424,439.365C693.503,437.863 692.854,436.885 691.787,435.483L692.944,433.777L692.409,432.874L691.589,432.712L691.188,435.11C687.794,435.671 686.749,432.485 680.688,433.454C674.797,434.395 657.415,446.454 653.325,444.223C653.118,443.124 652.975,442.832 653.116,441.737C652.409,440.432 650.979,439.169 650.015,437.689Z" style="fill:rgb(197,92,28);fill-rule:nonzero;"/>
                    <path d="M613.962,458.293C614.086,455.525 613.558,452.936 614.438,450.357L615.603,450.579L615.588,455.395C615.652,462.005 616.96,480.393 613.009,485.742C614.283,486.405 614.779,486.547 615.684,487.692C614.361,490.092 607.976,489.901 605.306,490.051C603.646,489.07 603.462,487.011 601.784,485.347C601.872,483.345 601.113,479.287 600.778,477.149C610.335,467.036 606.521,464.561 609.113,453.614L610.061,453.312C612.376,454.558 612.639,456.006 613.962,458.293Z" style="fill:rgb(197,92,28);fill-rule:nonzero;"/>
                    <path d="M613.962,458.293C614.086,455.525 613.558,452.936 614.438,450.357L615.603,450.579L615.588,455.395C615.652,462.005 616.96,480.393 613.009,485.742L610.033,487.115L609.85,486.712C612.144,484.476 613.021,482.038 613.346,478.94C613.457,471.743 614.374,465.801 613.962,458.293Z" style="fill:rgb(229,208,187);fill-rule:nonzero;"/>
                    <path d="M613.346,478.94C613.021,482.038 612.144,484.476 609.85,486.712L610.033,487.115C608.85,487.748 608.671,487.602 607.272,487.721C604.501,486.455 603.501,484.564 604.512,481.673C607.817,478.95 610.071,480.25 613.346,478.94Z" style="fill:rgb(201,129,75);fill-rule:nonzero;"/>
                    <path d="M641.746,436.781C644.821,434.502 646.521,434.129 649.554,436.921L650.015,437.689C650.979,439.169 652.409,440.432 653.116,441.737C651.345,442.804 651.163,442.99 649.188,443.425C647.379,442.548 647.983,442.979 647,440.626C647.148,442.863 647.538,445.045 646.744,447.064C640.648,450.361 624.31,453.258 616.413,455.808L615.588,455.395L615.603,450.579L616.213,448.983C622.18,450.262 629.866,448.72 634.739,445.059L634.251,444.559L634.988,442.929C636.073,442.482 636.455,442.336 637.45,441.728C636.39,441.091 635.982,440.991 635.334,439.947L636.414,439.168C638.102,440.342 638.415,440.635 640.314,441.319C641.878,440.44 641.34,441.059 642.008,439.423L640.987,437.568L641.746,436.781Z" style="fill:rgb(197,92,28);fill-rule:nonzero;"/>
                    <path d="M647,440.626C647.702,439.576 647.862,439.587 647.848,438.365C646.339,438.17 645.723,440.422 643.282,442.158C642.001,439.493 644.442,437.5 646.559,436.407C647.682,436.645 648.437,436.77 649.554,436.921L650.015,437.689C650.979,439.169 652.409,440.432 653.116,441.737C651.345,442.804 651.163,442.99 649.188,443.425C647.379,442.548 647.983,442.979 647,440.626Z" style="fill:rgb(231,208,178);fill-rule:nonzero;"/>
                    <path d="M664.146,479.49C669.641,481.376 677.079,482.381 682.93,483.287C674.187,487.517 663.251,501.307 661.225,501.902C662.502,495.364 662.586,491.115 662.436,484.64L662.402,480.559C662.655,480.317 663.773,479.707 664.146,479.49Z" style="fill:white;fill-rule:nonzero;"/>
                    <path d="M712.963,481.091C715.198,474.526 706.979,473.807 712.101,469.593C711.498,470.089 711.779,467.662 711.735,467.881L712.828,467.541C716.063,468.723 714.263,469.989 715.91,472.885C717.728,469.451 716.882,473.386 720.815,470.461C721.849,472.631 723.01,474.958 723.973,477.139L720.7,481.54L720.235,482.512C715.958,489.711 712.116,483.537 706.065,486.235C705.675,485.569 704.98,480.166 704.484,478.291L705.52,477.242C707.622,477.246 707.835,477.472 709.74,478.491C711.325,479.52 711.731,479.702 712.963,481.091Z" style="fill:rgb(199,102,36);fill-rule:nonzero;"/>
                    <path d="M720.815,470.461C721.849,472.631 723.01,474.958 723.973,477.139L720.7,481.54L720.235,482.512C719.232,481.237 718.413,479.821 717.56,478.438C717.026,478.412 716.794,478.215 716.252,477.966C715.397,476.325 715.763,474.804 715.91,472.885C717.728,469.451 716.882,473.386 720.815,470.461Z" style="fill:rgb(202,111,46);fill-rule:nonzero;"/>
                    <path d="M717.56,478.438L719.219,477.869C720.519,479.031 720.21,479.419 720.7,481.54L720.235,482.512C719.232,481.237 718.413,479.821 717.56,478.438Z" style="fill:rgb(211,157,111);fill-rule:nonzero;"/>
                    <path d="M709.74,478.491C711.325,479.52 711.731,479.702 712.963,481.091L713.054,483.19L712.466,483.693C710.783,481.915 710.572,480.783 709.74,478.491Z" style="fill:rgb(229,208,187);fill-rule:nonzero;"/>
                    <path d="M671.34,468.937C682.181,459.414 687.1,464.802 696.853,471.925L697.499,472.754C696.604,474.523 692.457,476.895 690.511,478.232C684.209,475.294 677.876,471.963 671.34,468.937Z" style="fill:white;fill-rule:nonzero;"/>
                    <path d="M651.273,495.608C646.868,490.693 644.437,481.422 639.374,479.717L638.468,480.317L637.503,479.285L636.781,479.45C632.271,477.305 627.295,475.667 622.707,473.667C623.675,474.089 618.18,468.481 617.961,468.292C618.285,467.108 618.561,466.518 619.021,465.399C620.359,464.337 620.19,464.724 622.462,464.834C626.347,472.473 633.704,470.952 640.361,476.029C643.643,478.532 645.906,481.865 648.768,483.755L649.753,483.861C653.441,488.669 651.044,489.802 651.273,495.608Z" style="fill:rgb(199,102,36);fill-rule:nonzero;"/>
                    <path d="M694.424,439.365C696.507,437.636 695.935,436.269 697.512,434.028C698.208,438.953 698.948,440.879 702.473,444.352L703.964,444.813C706.349,443.005 705.742,441.312 705.529,438.559C707.925,444.721 711.518,453.482 715.337,458.883C713.556,459.846 711.283,461.182 709.379,460.992C704.626,457.058 696.201,445.54 694.424,439.365Z" style="fill:rgb(199,102,36);fill-rule:nonzero;"/>
                    <path d="M669.635,470.865C673.925,472.585 684.703,475.96 687.026,479.171L686.778,480.187C682.593,482.475 670.545,479.684 666.023,478.293C665.537,478.145 665.055,477.984 664.577,477.81C666.322,475.878 668.128,473.066 669.635,470.865Z" style="fill:white;fill-rule:nonzero;"/>
                    <path d="M698.931,474.561C700.828,477.976 700.552,478.513 704.484,478.291C704.98,480.166 705.675,485.569 706.065,486.235L705.692,487.641C702.214,481.896 698.793,481.549 692.572,479.335C694.548,477.65 696.817,476.091 698.931,474.561Z" style="fill:white;fill-rule:nonzero;"/>
                    <path d="M612.407,509.378C614.193,508.567 613.501,508.609 615.332,508.787C617.258,512.039 616.613,512.941 620.31,513.815C616.241,516.63 616.617,516.934 616.468,521.786C615.044,519.394 614.783,519.153 615.052,516.381L613.471,514.711L612.407,509.378Z" style="fill:rgb(199,102,36);fill-rule:nonzero;"/>
                    <path d="M639.718,458.587C641.672,456.162 644.055,453.536 647.293,455.107C647.936,459.392 641.98,460.331 638.753,461.3C639.394,460.517 640.042,459.741 640.699,458.973L639.718,458.587Z" style="fill:rgb(197,92,28);fill-rule:nonzero;"/>
                    <path d="M648.057,511.096C651.669,510.723 653.458,510.164 656.708,511.841L656.632,512.639C655.094,512.772 653.312,512.753 652.047,513.522C651.683,511.001 650.21,511.431 648.057,511.096Z" style="fill:rgb(202,111,46);fill-rule:nonzero;"/>
                    <path d="M642.173,465.755L644.603,464.581L645.194,464.909C644.949,466.13 644.786,466.756 644.434,467.914C642.493,466.935 643.214,467.637 642.173,465.755Z" style="fill:rgb(199,102,36);fill-rule:nonzero;"/>
                    <path d="M620.54,481.565C621.124,481.428 623.654,482.342 624.623,482.879L625.028,481.497C627.563,480.494 636.56,491.873 642.169,493.713L642.845,493.065C642.995,491.686 642.945,490.578 643.735,489.478C645.359,490.432 646.455,493.81 647.458,495.883L648.308,496.494L647.89,496.981C635.669,494.453 629.149,501.113 625.489,490.179C625.103,489.027 618.765,486.736 617.787,484.091C619.143,483.222 619.561,482.845 620.54,481.565Z" style="fill:rgb(199,102,36);fill-rule:nonzero;"/>
                    <path d="M652.717,468.91C648.952,467.767 648.055,458.884 649.936,456.071C651.453,457.073 651.358,457.06 653.147,457.286C658.306,454.914 658.69,455.906 662.269,460.103L662.01,460.945L662.437,460.334L662.784,461.145C661.958,461.095 659.586,459.568 658.687,459.053L658.077,459.42L659.821,462.246L659.58,463.113C657.517,464.536 656.152,463.406 653.693,464.103L652.845,466.147L652.717,468.91Z" style="fill:rgb(197,92,28);fill-rule:nonzero;"/>
                    <path d="M652.845,466.147C655.607,467.417 658.614,468.982 659.576,472.145C658.27,472.686 658.259,472.387 656.567,472.058C655.824,471.376 653.577,469.217 652.717,468.91L652.845,466.147Z" style="fill:rgb(223,184,148);fill-rule:nonzero;"/>
                    <path d="M649.489,445.18C650.405,446.988 649.742,449.401 649.523,451.775L648.768,450.789C648.48,448.355 648.848,447.479 649.489,445.18Z" style="fill:rgb(215,163,117);fill-rule:nonzero;"/>
                    <path d="M525.423,469.74C530.386,465.838 536.974,465.312 542.979,465.702L543.826,466.425C542.056,470.634 540.482,473.928 539.31,478.365C537.917,489.082 541.595,491.105 551.963,491.069C554.368,491.653 554.678,491.318 556.229,492.924C558.204,492.961 559.715,492.812 561.518,493.572L561.041,494.002C559.282,495.606 558.9,495.972 558.11,498.325L558.811,498.019C561.178,496.96 561.842,495.839 564.116,495.906C565.511,497.292 565.119,496.506 565.592,498.196L563.319,500.621C563.634,501.87 564.784,503.941 564.783,503.146C564.785,505.503 563.491,507.562 563.359,509.967C563.105,511.272 563.608,512.121 564.085,513.299C562.993,514.214 562.728,514.131 561.332,514.393L560.455,515.543C562.378,519.783 563.291,516.553 564.265,520.363C563.05,522.873 563.126,524.225 561.441,525.721L559.373,525.681C558.669,526.738 558.906,531.68 558.989,533.085C559.565,542.885 556.714,550.532 558.293,560.308C562.628,569.507 567.57,574.84 573.772,582.691C571.203,583.291 568.683,583.901 566.086,584.373C562.751,581.05 556.614,574.071 553.763,570.31C550.425,567.284 545.409,563.525 541.791,560.676C543.431,546.115 544.413,537.042 531.056,528.408C528.918,530.199 526.498,532.407 524.089,533.698C519.613,537.332 515.669,541.395 511.363,545.078C504.019,551.36 499.16,553.346 494.958,562.481C493.6,567.24 491.4,579.062 489.035,582.155L488.075,582.358L487.6,581.75C486.973,580.961 486.549,580.498 485.595,580.113L485.345,581.754C483.365,582.305 483.999,582.45 482.545,581.69C483.013,577.021 485.604,571.119 486.421,566.019C487.17,561.346 485.373,550.029 487.658,547.166C492.963,540.521 498.676,539.017 502.276,530.177L502.548,529.499L499.872,522.585C496.681,528.24 493.035,534.661 487.453,538.29C486.396,539.322 485.186,540.571 484.093,541.528C480.285,543.323 477.594,543.81 473.393,544.205L469.971,544.154C462.857,547.486 460.443,545.955 454.941,548.29C459.845,545.604 460.765,546.268 465.062,544.658L464.828,543.773L465.414,543.339C467.531,540.819 471.828,537.976 472.822,534.869C470.734,536.935 471.824,534.746 470.523,536.632L470.334,536.583L471.12,534.376L470.11,534.587C468.919,535.947 468.025,537.207 466.456,538.063L466.116,537.593C466.524,536.631 466.856,535.938 467.095,534.907L466.85,534.653C464.864,536.634 462.811,538.8 460.635,540.551C457.079,543.737 450.919,547.181 446.049,546.958C444.011,546.848 441.99,546.524 440.019,545.991L440.096,545.618L440.309,545.605L440.449,544.17C437.371,543.539 435.674,543.318 432.859,541.897L433.836,541.225L430.592,539.103L432.204,537.478C425.371,530.551 419.065,527.492 409.772,526.601L409.65,526.09C410.098,525.985 411.037,525.739 411.367,525.471C415.006,522.507 420.116,526.012 423.802,525.334L419.453,522.667L419.642,522.265L422.044,522.275C424.067,522.628 424.402,522.404 426.077,521.339L426.442,521.102C430.193,523.519 433.361,525.473 437.263,527.674C433.052,521.691 431.77,521.793 425.992,517.576L426.701,516.299L425.898,515.53C423.663,515.949 422.421,516.078 420.163,516.25L419.984,515.647C424.658,511.801 430.491,514.738 433.891,518.766C436.277,520.947 438.703,523.266 441.3,525.171L441.693,525.221C442.355,523.044 439.152,514.31 437.729,512.352L437.922,510.822L442.028,514.776C443.085,515.7 443.182,515.877 444.489,516.48L444.946,517.263L445.469,514.904C448.575,514.975 450.794,519.313 454.386,521.343C467.629,507.454 485.87,496.283 501.866,486.049C504.183,484.566 506.489,482.772 508.647,481.053C509.059,480.377 509.869,479.82 510.515,479.277C513.635,476.696 521.764,471.883 525.423,469.74Z" style="fill:rgb(188,79,18);fill-rule:nonzero;"/>
                    <path d="M496.162,509.63L497.087,509.546L497.333,508.507L498.084,508.256L497.777,508.913C498.644,510.753 498.439,509.788 498.24,511.943C498.486,514.604 498.904,518.418 498.792,521.061L499.872,522.585C496.681,528.24 493.035,534.661 487.453,538.29C486.396,539.322 485.186,540.571 484.093,541.528C480.285,543.323 477.594,543.81 473.393,544.205L469.971,544.154C462.857,547.486 460.443,545.955 454.941,548.29C459.845,545.604 460.765,546.268 465.062,544.658L464.828,543.773L465.414,543.339C467.531,540.819 471.828,537.976 472.822,534.869C470.734,536.935 471.824,534.746 470.523,536.632L470.334,536.583L471.12,534.376L470.11,534.587C468.919,535.947 468.025,537.207 466.456,538.063L466.116,537.593C466.524,536.631 466.856,535.938 467.095,534.907L466.85,534.653C467.286,533.9 468.598,532.501 469.238,531.774C468.226,529.98 466.711,528.184 466.908,526.393C467.28,526.323 467.651,526.247 468.021,526.165C472.982,525.052 483.07,521.277 485.805,517.041C487.021,513.382 488.533,511.671 491.1,508.939L491.999,508.143L495.943,508.625C496.032,508.944 496.193,509.345 496.162,509.63Z" style="fill:rgb(197,92,28);fill-rule:nonzero;"/>
                    <path d="M469.238,531.774C468.226,529.98 466.711,528.184 466.908,526.393C467.28,526.323 467.651,526.247 468.021,526.165C472.982,525.052 483.07,521.277 485.805,517.041C484.632,520.882 483.507,524.041 482.091,527.794L481.917,529.269L483.379,530.176C478.455,533.505 475.919,539.773 469.971,544.154C462.857,547.486 460.443,545.955 454.941,548.29C459.845,545.604 460.765,546.268 465.062,544.658L464.828,543.773L465.414,543.339C467.531,540.819 471.828,537.976 472.822,534.869C470.734,536.935 471.824,534.746 470.523,536.632L470.334,536.583L471.12,534.376L470.11,534.587C468.919,535.947 468.025,537.207 466.456,538.063L466.116,537.593C466.524,536.631 466.856,535.938 467.095,534.907L466.85,534.653C467.286,533.9 468.598,532.501 469.238,531.774Z" style="fill:rgb(202,111,46);fill-rule:nonzero;"/>
                    <path d="M472.822,534.869C472.988,534.567 481.188,523.365 480.95,523.544C479.409,527.329 477.827,531.097 476.202,534.846L475.617,534.046C473.712,537.206 469.002,542.367 465.414,543.339C467.531,540.819 471.828,537.976 472.822,534.869Z" style="fill:rgb(211,157,111);fill-rule:nonzero;"/>
                    <path d="M465.414,543.339C469.002,542.367 473.712,537.206 475.617,534.046L476.202,534.846C474.471,538.607 469.624,544.909 465.062,544.658L464.828,543.773L465.414,543.339Z" style="fill:rgb(240,228,210);fill-rule:nonzero;"/>
                    <path d="M469.238,531.774C470.416,530.411 471.224,529.176 472.847,528.498C471.611,530.664 470.929,531.787 469.422,533.817L470.11,534.587C468.919,535.947 468.025,537.207 466.456,538.063L466.116,537.593C466.524,536.631 466.856,535.938 467.095,534.907L466.85,534.653C467.286,533.9 468.598,532.501 469.238,531.774Z" style="fill:rgb(223,184,148);fill-rule:nonzero;"/>
                    <path d="M483.379,530.176L488.322,526.052C487.149,530.401 485.801,537.123 482.916,540.377L484.093,541.528C480.285,543.323 477.594,543.81 473.393,544.205L469.971,544.154C475.919,539.773 478.455,533.505 483.379,530.176Z" style="fill:rgb(239,222,198);fill-rule:nonzero;"/>
                    <path d="M473.393,544.205C474.275,543.5 481.128,541.106 482.916,540.377L484.093,541.528C480.285,543.323 477.594,543.81 473.393,544.205Z" style="fill:rgb(201,129,75);fill-rule:nonzero;"/>
                    <path d="M488.764,534.837C490.646,530.903 495.816,513.18 498.24,511.943C498.486,514.604 498.904,518.418 498.792,521.061L499.872,522.585C496.681,528.24 493.035,534.661 487.453,538.29C487.701,536.434 487.635,536.23 488.764,534.837Z" style="fill:rgb(240,228,210);fill-rule:nonzero;"/>
                    <path d="M488.764,534.837C493.067,533.9 497.048,524.836 498.792,521.061L499.872,522.585C496.681,528.24 493.035,534.661 487.453,538.29C487.701,536.434 487.635,536.23 488.764,534.837Z" style="fill:rgb(215,163,117);fill-rule:nonzero;"/>
                    <path d="M485.805,517.041C487.021,513.382 488.533,511.671 491.1,508.939L489.843,513.529C487.1,520.544 487.336,522.294 482.091,527.794C483.507,524.041 484.632,520.882 485.805,517.041Z" style="fill:rgb(239,222,198);fill-rule:nonzero;"/>
                    <path d="M491.1,508.939L491.999,508.143L495.943,508.625C496.032,508.944 496.193,509.345 496.162,509.63C493.451,511.055 492.271,511.631 489.843,513.529L491.1,508.939Z" style="fill:rgb(199,102,36);fill-rule:nonzero;"/>
                    <path d="M532.193,486.87C532.602,485.413 532.688,484.276 533.863,483.432C534.365,483.777 539.305,490.641 539.368,491.266C539.858,496.119 537.032,507.624 534.913,511.85L533.265,511.324C532.402,512.308 532.425,516.985 532.82,517.996C535.016,523.619 533.276,523.456 531.056,528.408C528.918,530.199 526.498,532.407 524.089,533.698C525.295,531.484 524.71,531.825 526.607,530.689C525.102,529.91 523.98,529.527 522.383,528.943C523.201,522.971 517.077,511.276 521.185,508.261C522.191,509.722 521.544,509.316 522.951,509.826L523.458,508.71L522.687,507.119C528.597,499.985 525.737,494.921 532.193,486.87Z" style="fill:rgb(211,157,111);fill-rule:nonzero;"/>
                    <path d="M522.687,507.119C528.597,499.985 525.737,494.921 532.193,486.87C531.916,492.545 529.908,506.477 522.687,507.119Z" style="fill:rgb(197,92,28);fill-rule:nonzero;"/>
                    <path d="M525.423,469.74C530.386,465.838 536.974,465.312 542.979,465.702L543.826,466.425C542.056,470.634 540.482,473.928 539.31,478.365C539.175,476.589 539.17,474.649 539.125,472.854L539.331,472.474L538.24,472.587C536.463,471.716 535.887,471.252 533.974,471.218C531.84,472.623 530.934,472.831 528.57,473.584C524.616,475.098 512.501,483.947 508.864,486.919C509.118,488.043 508.952,487.689 509.611,488.574C507.766,492.052 506.435,494.802 504.866,498.412L504.41,498.471L503.699,496.468C502.154,497.846 500.86,500.335 500.042,502.239L499.53,501.967C498.953,493.163 508.748,486.501 508.647,481.053C509.059,480.377 509.869,479.82 510.515,479.277C513.635,476.696 521.764,471.883 525.423,469.74Z" style="fill:rgb(211,157,111);fill-rule:nonzero;"/>
                    <path d="M525.423,469.74C530.386,465.838 536.974,465.312 542.979,465.702L543.826,466.425C542.056,470.634 540.482,473.928 539.31,478.365C539.175,476.589 539.17,474.649 539.125,472.854L539.331,472.474L538.24,472.587C536.463,471.716 535.887,471.252 533.974,471.218C531.84,472.623 530.934,472.831 528.57,473.584C533.917,465.762 535.262,470.792 540.228,470.091L540.477,469.134L539.621,468.103C536.915,467.268 531.672,467.347 529.464,469.309L525.423,469.74Z" style="fill:rgb(199,102,36);fill-rule:nonzero;"/>
                    <path d="M525.423,469.74L529.464,469.309C525.517,472.915 519.041,479.265 513.203,479.527C512.821,479.544 511.46,479.277 510.515,479.277C513.635,476.696 521.764,471.883 525.423,469.74Z" style="fill:rgb(197,92,28);fill-rule:nonzero;"/>
                    <path d="M437.263,527.674C433.052,521.691 431.77,521.793 425.992,517.576L426.701,516.299L425.898,515.53C423.663,515.949 422.421,516.078 420.163,516.25L419.984,515.647C424.658,511.801 430.491,514.738 433.891,518.766C436.277,520.947 438.703,523.266 441.3,525.171L440.807,525.689C438.977,527.581 438.985,527.3 436.337,527.968C434.642,530.725 437.183,530.719 435.548,532.308C433.781,531.25 430.448,530.163 428.388,530.493C429.045,532.756 432.56,533.097 433.34,536.529C435.414,537.308 437.93,537.721 438.69,539.23C437.819,539.937 437.788,539.831 436.643,539.94L437.008,540.562C434.657,540.415 433.818,539.15 432.204,537.478C425.371,530.551 419.065,527.492 409.772,526.601L409.65,526.09C410.098,525.985 411.037,525.739 411.367,525.471C415.006,522.507 420.116,526.012 423.802,525.334L419.453,522.667L419.642,522.265L422.044,522.275C424.067,522.628 424.402,522.404 426.077,521.339L426.442,521.102C430.193,523.519 433.361,525.473 437.263,527.674Z" style="fill:rgb(202,111,46);fill-rule:nonzero;"/>
                    <path d="M437.263,527.674C433.052,521.691 431.77,521.793 425.992,517.576L426.701,516.299L425.898,515.53C423.663,515.949 422.421,516.078 420.163,516.25L419.984,515.647C424.658,511.801 430.491,514.738 433.891,518.766C434.997,522.75 438.474,524.103 439.131,526.862C438.6,527.029 432.98,527.659 432.539,527.474C428.996,525.99 425.624,523.797 422.044,522.275C424.067,522.628 424.402,522.404 426.077,521.339L426.442,521.102C430.193,523.519 433.361,525.473 437.263,527.674Z" style="fill:rgb(223,184,148);fill-rule:nonzero;"/>
                    <path d="M558.293,560.308C562.628,569.507 567.57,574.84 573.772,582.691C571.203,583.291 568.683,583.901 566.086,584.373C562.751,581.05 556.614,574.071 553.763,570.31C555.289,570.699 557.005,572.773 558.345,574.047C560.245,574.587 560.138,574.575 562.084,574.203C565.024,570.503 557.883,565.868 558.293,560.308Z" style="fill:rgb(201,129,75);fill-rule:nonzero;"/>
                    <path d="M437.922,510.822L442.028,514.776C443.085,515.7 443.182,515.877 444.489,516.48L444.946,517.263L445.469,514.904C448.575,514.975 450.794,519.313 454.386,521.343L451.748,522.967L450.454,522.646L448.482,523.191L448.078,524.537L448.155,525.93C446.489,526.725 446.093,526.567 444.169,526.469L441.693,525.221C442.355,523.044 439.152,514.31 437.729,512.352L437.922,510.822Z" style="fill:rgb(201,129,75);fill-rule:nonzero;"/>
                    <path d="M444.946,517.263L445.469,514.904C448.575,514.975 450.794,519.313 454.386,521.343L451.748,522.967L450.454,522.646C447.698,520.508 447.151,519.967 444.946,517.263Z" style="fill:rgb(231,208,178);fill-rule:nonzero;"/>
                    <path d="M444.169,526.469C442.281,521.861 440.651,517.973 439.189,513.196C441.594,516.846 444.692,521.982 448.078,524.537L448.155,525.93C446.489,526.725 446.093,526.567 444.169,526.469Z" style="fill:rgb(240,228,210);fill-rule:nonzero;"/>
                    <path d="M485.595,580.113C487.22,575.564 490.845,570.02 491.815,564.722C492.09,563.222 493.682,562.901 494.958,562.481C493.6,567.24 491.4,579.062 489.035,582.155L488.075,582.358L487.6,581.75C486.973,580.961 486.549,580.498 485.595,580.113Z" style="fill:rgb(201,129,75);fill-rule:nonzero;"/>
                    <path d="M556.229,492.924C558.204,492.961 559.715,492.812 561.518,493.572L561.041,494.002C559.282,495.606 558.9,495.972 558.11,498.325C556.991,498.898 555.867,500.436 554.7,501.381C553.327,501.108 552.687,501.033 551.284,500.914C550.426,501.655 549.875,502.097 548.953,502.756L547.786,502.237C548.043,498.856 553.546,494.868 556.229,492.924Z" style="fill:rgb(215,163,117);fill-rule:nonzero;"/>
                    <path d="M440.449,544.17C450.903,544.971 451.025,542.257 459.156,539.357L459.927,539.09L460.635,540.551C457.079,543.737 450.919,547.181 446.049,546.958C444.011,546.848 441.99,546.524 440.019,545.991L440.096,545.618L440.309,545.605L440.449,544.17Z" style="fill:rgb(201,129,75);fill-rule:nonzero;"/>
                    <path d="M440.449,544.17C450.903,544.971 451.025,542.257 459.156,539.357L459.927,539.09C456.003,543.446 445.898,547.379 440.309,545.605L440.449,544.17Z" style="fill:rgb(240,228,210);fill-rule:nonzero;"/>
                    <path d="M432.204,537.478C433.818,539.15 434.657,540.415 437.008,540.562L438.818,542.014L438.484,542.432C436.338,542.138 435.862,542.001 433.836,541.225L430.592,539.103L432.204,537.478Z" style="fill:rgb(240,228,210);fill-rule:nonzero;"/>
                    <path d="M539.975,518.068C537.963,519.173 538.67,519.182 536.905,518.744L536.455,517.79C537.339,514.548 539.72,511.996 543.161,511.696C545.027,512.536 544.946,512.127 545.661,513.548C544.661,515.187 545.343,514.548 543.375,515.33L539.975,518.068Z" style="fill:url(#_Linear2);fill-rule:nonzero;"/>
                    <path d="M535.017,474.974L536.816,475.306L537.447,476.244C537.202,478.968 534.905,481.268 533.054,483.244L531.294,483.303L530.503,482.358C530.755,479.258 532.957,477.155 535.017,474.974Z" style="fill:rgb(215,163,117);fill-rule:nonzero;"/>
                    <path d="M481,516.376L481.928,516.705C480.981,518.264 478.349,519.036 476.365,519.966C475.61,519.889 476.017,520.019 475.233,519.368C476.507,518.028 479.185,517.143 481,516.376Z" style="fill:rgb(202,111,46);fill-rule:nonzero;"/>
                    <path d="M543.375,515.33C544.889,516.645 545.579,516.724 545.819,518.22C543.642,518.29 541.9,518.005 539.975,518.068L543.375,515.33Z" style="fill:rgb(215,163,117);fill-rule:nonzero;"/>
                    <path d="M550.661,557.258C553.536,558.146 554.17,560.898 555.246,563.489C553.22,562.543 551.523,559.232 550.661,557.258Z" style="fill:rgb(211,157,111);fill-rule:nonzero;"/>
                    <path d="M548.722,546.134L549.438,546.046C549.634,548.012 549.788,548.932 549.592,550.877L549.17,550.995L548.63,550.599C548.434,548.739 548.183,547.874 548.722,546.134Z" style="fill:rgb(202,111,46);fill-rule:nonzero;"/>
                    <path d="M544.816,556.121C546.953,557.335 546.97,558.185 547.746,560.575C545.525,559.505 545.444,558.368 544.816,556.121Z" style="fill:rgb(201,129,75);fill-rule:nonzero;"/>
                    <path d="M476.601,510.368C477.429,511.09 477.141,510.651 477.302,511.803L475.619,513.832C474.922,513.231 475.168,513.509 474.836,512.558L476.601,510.368Z" style="fill:rgb(202,111,46);fill-rule:nonzero;"/>
                    <path d="M599.102,433.539C600.604,429.483 610.427,398.614 609.847,396.931L606.878,393.348C608.38,389.397 608.378,388.84 612.06,386.868L612.665,386.547C614.888,382.852 616.755,375.682 618.075,371.273C619.063,368.426 619.989,365.429 620.924,362.553C622.158,359.373 623.325,356.168 624.426,352.94C625.42,349.207 626.614,345.836 627.873,342.197L627.196,341.854C628.415,338.398 629.632,335.09 630.561,331.537L631.585,331.469C632.571,327.939 633.468,325.5 634.797,322.071L634.268,321.031C635.644,317.459 636.573,314.209 637.645,310.553L638.951,310.005C645.031,292.655 651.376,275.659 655.069,257.606C655.849,253.79 660.76,245.111 660.757,243.15L659.524,242.424C661.519,240.676 661.114,240.479 663.509,240.141C664.235,240.529 665.008,240.692 665.041,241.445C665.31,247.625 659.861,260.647 657.939,266.097L649.222,291.577C647.949,295.219 646.897,298.889 645.751,302.568C638.197,326.817 628.697,350.692 620.918,374.83C624.311,374.356 630.266,373.203 633.356,375.257C635.223,376.498 634.624,381.044 637.426,381.657C640.939,382.425 647.752,385.716 647.71,389.725C644.306,392.81 640.439,388.963 635.477,389.407C635.415,393.71 634.74,393.939 633.392,397.988L633.028,400.212C631.48,401.27 630.814,400.978 628.911,400.427L628.087,401.161C628.541,405.165 627.375,407.322 628.1,411.493C629.624,420.27 630.122,435.011 641.746,436.781L640.987,437.568L642.008,439.423C641.34,441.059 641.878,440.44 640.314,441.319C638.415,440.635 638.102,440.342 636.414,439.168L635.334,439.947C635.982,440.991 636.39,441.091 637.45,441.728C636.455,442.336 636.073,442.482 634.988,442.929L634.251,444.559C630.764,443.901 629.392,442.49 627.185,441.502C618.629,437.67 621.094,431.456 616.479,426.096C613.747,426.379 608.492,434.198 603.555,437.489L603.031,437.835C600.688,435.684 601.109,436.642 599.102,433.539Z" style="fill:rgb(211,157,111);fill-rule:nonzero;"/>
                    <g transform="matrix(0.449033,0,0,0.449033,396.241352,220.321816)">
                        <path d="M530.05,499.378L531.136,500.492C520.284,508.645 503.167,512.079 489.879,509.23C484.407,507.493 475.033,515.35 470.466,518.548C467.535,515.148 464.553,511.789 461.52,508.478L461.063,509.633C456.14,508.656 452.472,511.01 447.646,513.103L444.47,513.328C441.23,510.48 442.397,512.23 441.348,507.602C443.472,501.552 445.499,495.467 447.427,489.352C447.49,486.666 450.746,477.881 451.772,474.836C456.242,481.747 455.304,479.613 460.522,484.404L461.689,483.633C472.684,476.304 484.387,458.891 490.471,458.261C500.749,470.198 495.258,484.038 514.313,492.57C519.228,494.771 522.284,497.913 530.05,499.378Z" style="fill:white;"/>
                    </g>
                    <g transform="matrix(0.53868,0,0,0.53868,374.710603,149.568749)">
                        <path d="M419,544L426,548" style="fill:none;"/>
                    </g>
                    <path d="M599.102,433.539C601.109,436.642 600.688,435.684 603.031,437.835C601.551,439.555 600.873,440.161 600.187,442.354L600.667,442.969L603.932,442.787L604.69,443.562C604.491,445.37 604.151,445.707 603.21,447.333L603.479,448.645L603.274,449.164C601.063,448.725 599.416,449.782 597.249,450.722L595.823,450.823C594.368,449.544 594.892,450.33 594.421,448.252C595.375,445.535 596.285,442.803 597.151,440.057C597.179,438.851 598.641,434.906 599.102,433.539Z" style="fill:rgb(199,102,36);fill-rule:nonzero;"/>
                    <path d="M617.776,392.291L616.539,392.24C616.407,391.565 616.374,391.208 616.505,390.488C616.925,388.185 615.74,390.451 615.539,388.212C618.642,386.439 625.11,385.479 628.692,385.467C632.075,386.095 635.752,386.673 639.007,387.711C637.651,388.603 637.092,389.122 635.477,389.407C635.415,393.71 634.74,393.939 633.392,397.988L633.028,400.212C631.48,401.27 630.814,400.978 628.911,400.427L629.628,399.518C626.865,397.362 624.557,395.801 622.578,392.874L621.855,393.608C619.338,392.122 620.352,392.324 617.776,392.291Z" style="fill:rgb(197,92,28);fill-rule:nonzero;"/>
                    <path d="M622.578,392.874C623.83,391.149 624.025,390.998 626.038,390.3C630.144,390.479 631.614,393.279 632.284,396.87L632.413,397.614L633.392,397.988L633.028,400.212C631.48,401.27 630.814,400.978 628.911,400.427L629.628,399.518C626.865,397.362 624.557,395.801 622.578,392.874Z" style="fill:rgb(223,184,148);fill-rule:nonzero;"/>
                    <path d="M628.692,385.467C626.519,385.03 619.522,383.858 618.196,382.785C616.962,378.884 621.774,376.095 624.963,375.727C632.233,374.888 634.023,377.3 635.428,383.122C640.647,383.919 641.3,384.262 645.442,387.574L645.841,388.613C645.841,388.613 641.607,388.328 639.007,387.711C635.752,386.673 632.075,386.095 628.692,385.467Z" style="fill:rgb(240,228,210);fill-rule:nonzero;"/>
                    <g transform="matrix(0.449033,0,0,0.449033,396.241352,220.321816)">
                        <path d="M554.972,372.472L555.861,374.786L554.972,372.472Z" style="fill:none;"/>
                    </g>
                    <path d="M617.776,392.291C620.352,392.324 619.338,392.122 621.855,393.608C623.114,395.918 625.333,399.325 623.37,401.625C620.42,400.935 617.7,396.295 616.598,393.647L617.776,392.291Z" style="fill:rgb(223,184,148);fill-rule:nonzero;"/>
                    <path d="M637.645,310.553L638.951,310.005C637.579,314.856 636.513,317.466 634.797,322.071L634.268,321.031C635.644,317.459 636.573,314.209 637.645,310.553Z" style="fill:rgb(197,92,28);fill-rule:nonzero;"/>
                    <path d="M631.585,331.469C630.118,334.663 629.892,338.993 627.873,342.197L627.196,341.854C628.415,338.398 629.632,335.09 630.561,331.537L631.585,331.469Z" style="fill:rgb(197,92,28);fill-rule:nonzero;"/>
                    <path d="M715.36,556.47C717.838,558.679 720.539,560.625 721.332,563.836C719.869,569.362 709.125,568.346 706.837,563.724C706.751,562.077 706.767,562.159 707.382,560.74L709.478,562.092C711.137,560.348 713.05,558.907 714.932,557.406L715.36,556.47Z" style="fill:rgb(231,208,178);fill-rule:nonzero;"/>
                    <path d="M715.36,556.47C717.838,558.679 720.539,560.625 721.332,563.836C719.869,569.362 709.125,568.346 706.837,563.724C706.751,562.077 706.767,562.159 707.382,560.74L709.478,562.092L711.261,562.949C711.281,564.081 711.375,564.023 712.076,564.947C714.452,565.605 718.703,565.102 721.349,564.93C719.609,562.636 717.126,559.025 714.932,557.406L715.36,556.47Z" style="fill:rgb(201,129,75);fill-rule:nonzero;"/>
                    <path d="M442.028,514.776C441.742,509.522 441.968,507.621 442.611,502.487C443.747,504.514 443.058,511.675 444.489,516.48C443.182,515.877 443.085,515.7 442.028,514.776Z" style="fill:rgb(231,208,178);fill-rule:nonzero;"/>
                    <path d="M437.729,512.352C433.897,508.762 432.328,507.302 429.141,503.017C431.453,504.831 435.911,508.767 437.922,510.822L437.729,512.352Z" style="fill:rgb(223,184,148);fill-rule:nonzero;"/>
                    <path d="M432.859,541.897C430.706,540.909 428.809,539.437 427.315,537.597C428.315,537.395 429.484,538.427 430.592,539.103L433.836,541.225L432.859,541.897Z" style="fill:rgb(215,163,117);fill-rule:nonzero;"/>
                </g>
                <g transform="matrix(0.418637,0,0,0.418637,171.054826,160.685781)">
                    <path d="M1073,165C1073,165 1066.552,215.069 1012,225C1012,225 1006.091,229.432 1012,233C1017.909,236.568 1058.661,240.954 1072,294C1072,294 1074.361,297.959 1077,294C1077,294 1081.309,244.923 1138,231C1138,231 1138.382,228.759 1137,228C1137,228 1091.825,221.181 1076,168C1076,168 1075.145,162.661 1073,165Z" style="fill:white;"/>
                </g>
                <g transform="matrix(0.167455,0,0,0.167455,417.58858,241.844225)">
                    <path d="M1073,165C1073,165 1066.552,215.069 1012,225C1012,225 1006.091,229.432 1012,233C1017.909,236.568 1058.661,240.954 1072,294C1072,294 1074.361,297.959 1077,294C1077,294 1081.309,244.923 1138,231C1138,231 1138.382,228.759 1137,228C1137,228 1091.825,221.181 1076,168C1076,168 1075.145,162.661 1073,165Z" style="fill:white;"/>
                </g>
            </g>
        </g>
    </g>
    <defs>
        <linearGradient id="_Linear2" x1="0" y1="0" x2="1" y2="0" gradientUnits="userSpaceOnUse" gradientTransform="matrix(-2.69843,-3.83978,3.83978,-2.69843,541.14789,517.12195)"><stop offset="0" style="stop-color:rgb(197,71,0);stop-opacity:1"/><stop offset="1" style="stop-color:rgb(201,139,93);stop-opacity:1"/></linearGradient>
    </defs>
</svg>
